<svg xmlns="http://www.w3.org/2000/svg" viewBox="0 0 200 250" class="chord-diagram" role="img" aria-label="Diagramme d'accord Bm"><rect width="200" height="250" fill="#fefcf7" rx="8" ry="8"/><text x="100" y="24" text-anchor="middle" font-family="Poppins, sans-serif" font-size="22" font-weight="700" fill="#3a2818">Bm</text><rect x="28" y="56" width="144" height="5" fill="#7a5230" rx="2"/><line x1="30" y1="92" x2="170" y2="92" stroke="#d4af8b" stroke-width="1.5"/><line x1="30" y1="124" x2="170" y2="124" stroke="#d4af8b" stroke-width="1.5"/><line x1="30" y1="156" x2="170" y2="156" stroke="#d4af8b" stroke-width="1.5"/><line x1="30" y1="188" x2="170" y2="188" stroke="#d4af8b" stroke-width="1.5"/><line x1="30" y1="220" x2="170" y2="220" stroke="#d4af8b" stroke-width="1.5"/><line x1="30" y1="60" x2="30" y2="220" stroke="#5a3e25" stroke-width="1.6" opacity="0.8"/><line x1="76.66666666666666" y1="60" x2="76.66666666666666" y2="220" stroke="#5a3e25" stroke-width="1.45" opacity="0.8"/><line x1="123.33333333333333" y1="60" x2="123.33333333333333" y2="220" stroke="#5a3e25" stroke-width="1.3" opacity="0.8"/><line x1="170" y1="60" x2="170" y2="220" stroke="#5a3e25" stroke-width="1.15" opacity="0.8"/><rect x="68.66666666666666" y="99" width="109.33333333333334" height="18" rx="9" ry="9" fill="#c0392b" opacity="0.92"/><text x="123.33333333333333" y="112" text-anchor="middle" font-family="Poppins, sans-serif" font-size="11" font-weight="700" fill="white">1</text><circle cx="30" cy="172" r="11" fill="#2980b9" opacity="0.95"/><text x="30" y="176" text-anchor="middle" font-family="Poppins, sans-serif" font-size="11" font-weight="700" fill="white">3</text><circle cx="76.66666666666666" cy="108" r="11" fill="#c0392b" opacity="0.95"/><text x="76.66666666666666" y="112" text-anchor="middle" font-family="Poppins, sans-serif" font-size="11" font-weight="700" fill="white">1</text><circle cx="170" cy="108" r="11" fill="#c0392b" opacity="0.95"/><text x="170" y="112" text-anchor="middle" font-family="Poppins, sans-serif" font-size="11" font-weight="700" fill="white">1</text><text x="30" y="238" text-anchor="middle" font-family="Raleway, sans-serif" font-size="10" font-weight="600" fill="#5a3e25" opacity="0.7">G</text><text x="76.66666666666666" y="238" text-anchor="middle" font-family="Raleway, sans-serif" font-size="10" font-weight="600" fill="#5a3e25" opacity="0.7">C</text><text x="123.33333333333333" y="238" text-anchor="middle" font-family="Raleway, sans-serif" font-size="10" font-weight="600" fill="#5a3e25" opacity="0.7">E</text><text x="170" y="238" text-anchor="middle" font-family="Raleway, sans-serif" font-size="10" font-weight="600" fill="#5a3e25" opacity="0.7">A</text></svg>