<svg xmlns="http://www.w3.org/2000/svg" viewBox="0 0 200 218" class="chord-diagram" role="img" aria-label="Diagramme d'accord G"><rect width="200" height="218" fill="#fefcf7" rx="8" ry="8"/><text x="100" y="24" text-anchor="middle" font-family="Poppins, sans-serif" font-size="22" font-weight="700" fill="#3a2818">G</text><rect x="28" y="56" width="144" height="5" fill="#7a5230" rx="2"/><line x1="30" y1="92" x2="170" y2="92" stroke="#d4af8b" stroke-width="1.5"/><line x1="30" y1="124" x2="170" y2="124" stroke="#d4af8b" stroke-width="1.5"/><line x1="30" y1="156" x2="170" y2="156" stroke="#d4af8b" stroke-width="1.5"/><line x1="30" y1="188" x2="170" y2="188" stroke="#d4af8b" stroke-width="1.5"/><line x1="30" y1="60" x2="30" y2="188" stroke="#5a3e25" stroke-width="1.9" opacity="0.8"/><line x1="58" y1="60" x2="58" y2="188" stroke="#5a3e25" stroke-width="1.75" opacity="0.8"/><line x1="86" y1="60" x2="86" y2="188" stroke="#5a3e25" stroke-width="1.6" opacity="0.8"/><line x1="114" y1="60" x2="114" y2="188" stroke="#5a3e25" stroke-width="1.45" opacity="0.8"/><line x1="142" y1="60" x2="142" y2="188" stroke="#5a3e25" stroke-width="1.3" opacity="0.8"/><line x1="170" y1="60" x2="170" y2="188" stroke="#5a3e25" stroke-width="1.15" opacity="0.8"/><circle cx="86" cy="48" r="5" fill="none" stroke="#6b4423" stroke-width="1.8"/><circle cx="114" cy="48" r="5" fill="none" stroke="#6b4423" stroke-width="1.8"/><circle cx="142" cy="48" r="5" fill="none" stroke="#6b4423" stroke-width="1.8"/><circle cx="30" cy="140" r="11" fill="#27ae60" opacity="0.95"/><text x="30" y="144" text-anchor="middle" font-family="Poppins, sans-serif" font-size="11" font-weight="700" fill="white">2</text><circle cx="58" cy="108" r="11" fill="#c0392b" opacity="0.95"/><text x="58" y="112" text-anchor="middle" font-family="Poppins, sans-serif" font-size="11" font-weight="700" fill="white">1</text><circle cx="170" cy="140" r="11" fill="#2980b9" opacity="0.95"/><text x="170" y="144" text-anchor="middle" font-family="Poppins, sans-serif" font-size="11" font-weight="700" fill="white">3</text><text x="30" y="206" text-anchor="middle" font-family="Raleway, sans-serif" font-size="10" font-weight="600" fill="#5a3e25" opacity="0.7">E</text><text x="58" y="206" text-anchor="middle" font-family="Raleway, sans-serif" font-size="10" font-weight="600" fill="#5a3e25" opacity="0.7">A</text><text x="86" y="206" text-anchor="middle" font-family="Raleway, sans-serif" font-size="10" font-weight="600" fill="#5a3e25" opacity="0.7">D</text><text x="114" y="206" text-anchor="middle" font-family="Raleway, sans-serif" font-size="10" font-weight="600" fill="#5a3e25" opacity="0.7">G</text><text x="142" y="206" text-anchor="middle" font-family="Raleway, sans-serif" font-size="10" font-weight="600" fill="#5a3e25" opacity="0.7">B</text><text x="170" y="206" text-anchor="middle" font-family="Raleway, sans-serif" font-size="10" font-weight="600" fill="#5a3e25" opacity="0.7">E</text></svg>